<?xml version="1.0" encoding="UTF-8"?>
<svg id="Layer_1" data-name="Layer 1" xmlns="http://www.w3.org/2000/svg" viewBox="0 0 1630.91 823.69">
  <ellipse cx="815.45" cy="411.85" rx="120.1" ry="50.2" fill="#fff" isolation="isolate" opacity=".93" stroke="#000" stroke-miterlimit="10" stroke-width=".6"/>
  <g>
    <path d="M769.74,424.74c1.38-.15,2.27-.39,2.68-.74.41-.34.61-1.22.61-2.63v-16.65c0-1.33-.2-2.2-.6-2.6s-1.3-.66-2.69-.76v-.69h19.88l.13,5.35h-.95c-.32-1.65-.79-2.72-1.42-3.2-.63-.49-2.05-.73-4.24-.73h-5.09c-.55,0-.89.09-1.02.26-.13.18-.19.51-.19,1v8.35h5.77c1.6,0,2.61-.24,3.05-.71s.79-1.43,1.06-2.87h.88v8.64h-.88c-.28-1.45-.64-2.41-1.08-2.88s-1.45-.7-3.03-.7h-5.77v9.26c0,.74.24,1.18.71,1.32.47.13,1.88.2,4.22.2,2.54,0,4.41-.28,5.62-.83s2.29-1.9,3.25-4.03h1.04l-1.7,6.32h-20.23v-.69h-.01Z" fill="#6b6c6f"/>
    <path d="M792.78,424.96c.95-.09,1.58-.24,1.9-.48.49-.35.73-1.06.73-2.12v-9.45c0-.9-.12-1.49-.36-1.77s-.63-.42-1.18-.42c-.26,0-.45.01-.58.04s-.28.07-.45.13v-.64l1.32-.44c.47-.16,1.25-.44,2.34-.86,1.08-.41,1.66-.62,1.72-.62s.1.03.11.09c.01.06.02.18.02.35v2.47c1.21-1.1,2.25-1.85,3.12-2.27.88-.42,1.78-.63,2.7-.63,1.25,0,2.25.43,3,1.28.39.46.71,1.09.97,1.88.9-.91,1.69-1.59,2.36-2.03,1.16-.75,2.34-1.13,3.54-1.13,1.96,0,3.27.8,3.93,2.39.38.9.57,2.33.57,4.28v7.58c0,.87.19,1.45.58,1.76s1.08.51,2.07.61v.47h-8.24v-.51c1.06-.1,1.76-.31,2.09-.64s.5-1,.5-2.01v-7.88c0-1.18-.13-2.05-.38-2.61-.45-1-1.33-1.5-2.65-1.5-.79,0-1.58.26-2.36.79-.45.3-1,.79-1.66,1.46v9.36c0,.99.17,1.74.52,2.25s1.08.79,2.2.82v.47h-8.39v-.47c1.16-.15,1.89-.43,2.21-.84.32-.41.47-1.44.47-3.07v-5.11c0-1.87-.12-3.16-.37-3.87-.4-1.19-1.25-1.79-2.56-1.79-.74,0-1.47.2-2.19.61s-1.35.94-1.9,1.6v10c0,.93.16,1.57.48,1.92.32.35,1.03.54,2.11.55v.47h-8.31v-.47h.02Z" fill="#6b6c6f"/>
    <path d="M825.31,417.38c1.12-.73,3.36-1.72,6.71-2.98v-1.55c0-1.24-.12-2.11-.37-2.59-.41-.82-1.27-1.22-2.58-1.22-.62,0-1.21.16-1.77.48-.56.33-.84.78-.84,1.35,0,.15.03.39.09.74.06.35.09.57.09.67,0,.68-.23,1.16-.68,1.43-.26.16-.56.24-.91.24-.55,0-.97-.18-1.26-.54s-.44-.76-.44-1.2c0-.85.53-1.75,1.58-2.68s2.6-1.4,4.63-1.4c2.36,0,3.97.77,4.81,2.3.45.84.68,2.07.68,3.67v7.33c0,.71.05,1.19.15,1.46.16.48.49.71.99.71.28,0,.51-.04.69-.13.18-.08.5-.29.95-.62v.95c-.39.47-.81.87-1.26,1.17-.68.46-1.38.69-2.08.69-.83,0-1.43-.27-1.8-.8-.37-.54-.58-1.17-.61-1.92-.93.8-1.72,1.4-2.38,1.79-1.11.66-2.16.99-3.16.99-1.05,0-1.96-.37-2.72-1.11s-1.15-1.67-1.15-2.81c0-1.77.88-3.24,2.65-4.42h-.01ZM832.01,415.31c-1.4.46-2.56.97-3.47,1.54-1.75,1.08-2.63,2.31-2.63,3.69,0,1.11.37,1.92,1.1,2.45.47.34,1,.51,1.59.51.8,0,1.57-.23,2.31-.68.74-.45,1.11-1.02,1.11-1.72v-5.79h-.01Z" fill="#6b6c6f"/>
    <path d="M838.63,424.92c1.3-.12,2.13-.34,2.47-.67.34-.32.51-1.2.51-2.62v-8.72c0-.79-.05-1.34-.16-1.64-.18-.5-.57-.75-1.15-.75-.13,0-.26.01-.39.04s-.5.12-1.11.29v-.57l.79-.26c2.13-.69,3.62-1.22,4.46-1.57.34-.15.56-.22.66-.22.02.08.04.18.04.27v13.12c0,1.39.17,2.26.5,2.61s1.09.58,2.27.68v.51h-8.88v-.51h-.01ZM841.54,400.49c.37-.38.82-.56,1.35-.56s.97.18,1.34.55.56.82.56,1.35-.19.97-.56,1.34-.82.55-1.34.55-.99-.18-1.35-.55c-.37-.37-.55-.82-.55-1.34s.18-.97.55-1.35h0Z" fill="#6b6c6f"/>
    <path d="M849.06,424.92c1.13-.11,1.9-.34,2.3-.69.4-.35.6-1.03.6-2.04v-17.85c0-.8-.07-1.36-.2-1.66-.24-.51-.74-.77-1.48-.77-.17,0-.36.02-.56.05-.2.04-.45.09-.76.16v-.6c1.64-.44,3.62-1.02,5.94-1.75.09,0,.14.04.16.11s.03.23.03.47v21.91c0,1.06.18,1.75.55,2.06s1.12.51,2.27.59v.51h-8.84v-.51h-.01Z" fill="#6b6c6f"/>
  </g>
</svg>